<?xml version="1.0" encoding="utf-8"?>
<!-- Generated by IcoMoon.io -->
<!DOCTYPE svg PUBLIC "-//W3C//DTD SVG 1.1//EN" "http://www.w3.org/Graphics/SVG/1.1/DTD/svg11.dtd">
<svg version="1.1" xmlns="http://www.w3.org/2000/svg" xmlns:xlink="http://www.w3.org/1999/xlink" width="36" height="36" viewBox="0 0 36 36">
	<path d="M18 0c9.941 0 18 8.059 18 18s-8.059 18-18 18-18-8.059-18-18 8.059-18 18-18zM18 32.625c8.077 0 14.625-6.548 14.625-14.625s-6.548-14.625-14.625-14.625-14.625 6.548-14.625 14.625 6.548 14.625 14.625 14.625zM7.409 16.409l9-9c0.879-0.879 2.303-0.879 3.182 0s0.879 2.303 0 3.182l-5.159 5.159h12.568c1.243 0 2.25 1.007 2.25 2.25s-1.007 2.25-2.25 2.25h-12.568l5.159 5.159c0.879 0.879 0.879 2.303 0 3.182-0.439 0.439-1.015 0.659-1.591 0.659s-1.152-0.22-1.591-0.659l-9-9c-0.879-0.879-0.879-2.303 0-3.182z" fill="#cccccc" />
</svg>
