<?xml version="1.0" encoding="utf-8"?>
<!-- Generated by IcoMoon.io -->
<!DOCTYPE svg PUBLIC "-//W3C//DTD SVG 1.1//EN" "http://www.w3.org/Graphics/SVG/1.1/DTD/svg11.dtd">
<svg version="1.1" xmlns="http://www.w3.org/2000/svg" xmlns:xlink="http://www.w3.org/1999/xlink" width="8" height="8" viewBox="0 0 8 8">
	<path d="M6.25 1h-4.5c-0.414 0-0.75 0.336-0.75 0.75v0.25h6v-0.25c0-0.414-0.336-0.75-0.75-0.75zM4.94 0.5l0.11 0.789h-2.101l0.11-0.789h1.88M5 0h-2c-0.206 0-0.398 0.167-0.427 0.371l-0.146 1.046c-0.029 0.204 0.117 0.371 0.323 0.371h2.5c0.206 0 0.352-0.167 0.323-0.371l-0.146-1.046c-0.029-0.204-0.221-0.371-0.427-0.371v0zM6.375 2.5h-4.75c-0.275 0-0.48 0.224-0.455 0.498l0.409 4.504c0.025 0.274 0.27 0.498 0.545 0.498h3.75c0.275 0 0.52-0.224 0.545-0.498l0.409-4.504c0.025-0.274-0.18-0.498-0.455-0.498zM3 7h-0.75l-0.25-3.5h1v3.5zM4.5 7h-1v-3.5h1v3.5zM5.75 7h-0.75v-3.5h1l-0.25 3.5z" fill="#cccccc" />
</svg>
