<?xml version="1.0" encoding="utf-8"?>
<!-- Generated by IcoMoon.io -->
<!DOCTYPE svg PUBLIC "-//W3C//DTD SVG 1.1//EN" "http://www.w3.org/Graphics/SVG/1.1/DTD/svg11.dtd">
<svg version="1.1" xmlns="http://www.w3.org/2000/svg" xmlns:xlink="http://www.w3.org/1999/xlink" width="36" height="36" viewBox="0 0 36 36">
	<path d="M28.125 4.5h-20.25c-1.864 0-3.375 1.511-3.375 3.375v1.125h27v-1.125c0-1.864-1.511-3.375-3.375-3.375zM22.23 2.25l0.496 3.551h-9.453l0.496-3.551h8.46M22.5 0h-9c-0.928 0-1.793 0.752-1.921 1.671l-0.658 4.708c-0.128 0.919 0.526 1.671 1.454 1.671h11.25c0.928 0 1.582-0.752 1.454-1.671l-0.658-4.708c-0.128-0.919-0.993-1.671-1.921-1.671v0zM28.688 11.25h-21.375c-1.237 0-2.158 1.008-2.046 2.241l1.843 20.268c0.112 1.232 1.216 2.241 2.454 2.241h16.875c1.238 0 2.342-1.008 2.454-2.241l1.843-20.268c0.112-1.232-0.809-2.241-2.046-2.241zM13.5 31.5h-3.375l-1.125-15.75h4.5v15.75zM20.25 31.5h-4.5v-15.75h4.5v15.75zM25.875 31.5h-3.375v-15.75h4.5l-1.125 15.75z" fill="#333333" />
</svg>
