<?xml version="1.0" encoding="utf-8"?> <!-- Generator: IcoMoon.io --> <!DOCTYPE svg PUBLIC "-//W3C//DTD SVG 1.1//EN" "http://www.w3.org/Graphics/SVG/1.1/DTD/svg11.dtd"> <svg width="9" height="9" viewBox="0 0 12 12" xmlns="http://www.w3.org/2000/svg" xmlns:xlink="http://www.w3.org/1999/xlink" fill="#ff0000"><g><path d="M 6,12c 3.314,0, 6-2.686, 6-6S 9.314,0, 6,0S0,2.686,0,6S 2.686,12, 6,12z M 6,1.125 c 2.692,0, 4.875,2.183, 4.875,4.875s-2.183,4.875-4.875,4.875S 1.125,8.692, 1.125,6S 3.308,1.125, 6,1.125zM 3,3.75 C 3,3.336 3.336,3 3.75,3 C 4.164,3 4.5,3.336 4.5,3.75 C 4.5,4.164 4.164,4.5 3.75,4.5 C 3.336,4.5 3,4.164 3,3.75 Z M 7.5,3.75 C 7.5,3.336 7.836,3 8.25,3 C 8.664,3 9,3.336 9,3.75 C 9,4.164 8.664,4.5 8.25,4.5 C 7.836,4.5 7.5,4.164 7.5,3.75 ZM 3.749,9.149 L 2.784,8.57 C 3.44,7.48 4.635,6.75 6,6.75 C 7.365,6.75 8.56,7.48 9.216,8.57 L 8.251,9.149 C 7.792,8.386 6.956,7.875 6,7.875 C 5.044,7.875 4.208,8.386 3.749,9.149 Z"></path></g></svg>