<?xml version="1.0" encoding="utf-8"?> <!-- Generator: IcoMoon.io --> <!DOCTYPE svg PUBLIC "-//W3C//DTD SVG 1.1//EN" "http://www.w3.org/Graphics/SVG/1.1/DTD/svg11.dtd"> <svg width="10" height="10" viewBox="0 0 12 12" xmlns="http://www.w3.org/2000/svg" xmlns:xlink="http://www.w3.org/1999/xlink" fill="#006C6C"><g><path d="M 6,12c 3.314,0, 6-2.686, 6-6S 9.314,0, 6,0S0,2.686,0,6S 2.686,12, 6,12z M 6,1.125 c 2.692,0, 4.875,2.183, 4.875,4.875s-2.183,4.875-4.875,4.875S 1.125,8.692, 1.125,6S 3.308,1.125, 6,1.125zM 3,3.75 C 3,3.336 3.336,3 3.75,3 C 4.164,3 4.5,3.336 4.5,3.75 C 4.5,4.164 4.164,4.5 3.75,4.5 C 3.336,4.5 3,4.164 3,3.75 Z M 7.5,3.75 C 7.5,3.336 7.836,3 8.25,3 C 8.664,3 9,3.336 9,3.75 C 9,4.164 8.664,4.5 8.25,4.5 C 7.836,4.5 7.5,4.164 7.5,3.75 ZM 8.251,7.351 L 9.216,7.93 C 8.56,9.020 7.365,9.75 6,9.75 C 4.635,9.75 3.44,9.020 2.784,7.93 L 3.749,7.351 C 4.208,8.114 5.044,8.625 6,8.625 C 6.956,8.625 7.792,8.114 8.251,7.351 Z"></path></g></svg>